<svg id="Layer_1" data-name="Layer 1" xmlns="http://www.w3.org/2000/svg" viewBox="0 0 661.62 841.03"><defs><style>.cls-1{fill:#020202;}</style></defs><path class="cls-1" d="M516.63,544.86v2c0-.35,0-.67,0-1S516.66,545.21,516.63,544.86Z" transform="translate(-197.41 -120.45)"/><path class="cls-1" d="M687.84,374.67c-72.58,0-134.77,45.4-159.63,109.3-24.83-63.9-87-109.3-159.58-109.3-94.4,0-171.2,76.8-171.2,171.21s76.8,171.18,171.2,171.18c72.56,0,134.75-45.41,159.58-109.31,24.86,63.9,87,109.31,159.63,109.31,94.41,0,171.18-76.81,171.18-171.18S782.25,374.67,687.84,374.67ZM368.63,693.91c-81.64,0-148-66.42-148-148s66.41-148.06,148-148.06c81.27,0,147.48,65.87,148,147,0,.35,0,.67,0,1s0,.66,0,1C516.11,628,449.9,693.91,368.63,693.91Zm319.21,0c-81.29,0-147.5-65.87-148-147,0-.35,0-.67,0-1s0-.67,0-1c.53-81.17,66.74-147,148-147,81.64,0,148,66.42,148,148.06S769.48,693.91,687.84,693.91Z" transform="translate(-197.41 -120.45)"/><path class="cls-1" d="M520.91,330.45" transform="translate(-197.41 -120.45)"/><path class="cls-1" d="M198.85,121.14V250.82A90.21,90.21,0,0,0,289.06,341h.69a89.63,89.63,0,0,0,89.08-80.73.68.68,0,0,1,1-.55l144,69.1a3.65,3.65,0,0,0,3.13,0L678.1,259.73a.66.66,0,0,1,.95.55A89.65,89.65,0,0,0,768.14,341h.69A90.21,90.21,0,0,0,859,250.82V121.14a.69.69,0,0,0-.69-.69H199.54A.69.69,0,0,0,198.85,121.14ZM356.41,250.82a67.35,67.35,0,0,1-67.35,67.35h0a67.35,67.35,0,0,1-67.36-67.35V144a.69.69,0,0,1,.69-.69H355.73a.68.68,0,0,1,.68.69Zm321.81-22.67L525.62,297.8a.68.68,0,0,1-.56,0L379.68,234.12a.69.69,0,0,1-.41-.63V148.87a.67.67,0,0,1,.68-.68h298a.67.67,0,0,1,.68.68v78.66A.67.67,0,0,1,678.22,228.15Zm158,22.67a67.35,67.35,0,0,1-67.35,67.35h0a67.35,67.35,0,0,1-67.36-67.35V144a.69.69,0,0,1,.69-.69H835.5a.68.68,0,0,1,.68.69Z" transform="translate(-197.41 -120.45)"/><path class="cls-1" d="M846.06,961.48H210.39a13,13,0,0,1,0-25.93H846.06a13,13,0,0,1,0,25.93Z" transform="translate(-197.41 -120.45)"/><path class="cls-1" d="M210.38,861.19a13,13,0,1,1,0-25.94H451.64c9.15,0,63.62-16.62,63.62-70.85a13,13,0,1,1,25.93,0c0,54.55,56.18,70.85,63.59,70.85H846.07a13,13,0,0,1,0,25.94L601,861c-18.64,0-54.46-18.62-72.82-48.76C509.87,842.34,470.89,861,455.44,861Z" transform="translate(-197.41 -120.45)"/></svg>